<svg xmlns="http://www.w3.org/2000/svg" version="1.1" xmlns:xlink="http://www.w3.org/1999/xlink" viewBox="0 0 200 200"><rect width="200" height="200" fill="url('#gradient')"></rect><defs><linearGradient id="gradient" gradientTransform="rotate(0 0.5 0.5)"><stop offset="0%" stop-color="#f2ff00"></stop><stop offset="100%" stop-color="#d9e241"></stop></linearGradient></defs><g><g fill="#1b3855" transform="matrix(3.5385562130177517,0,0,3.5385562130177517,24.788104891912468,125.14581573143231)" stroke="#0e5278" stroke-width="1.15"><path d="M8.41-3.78L8.41-3.78Q8.41-4.53 7.88-4.95Q7.34-5.37 6.01-5.82Q4.67-6.27 3.82-6.69L3.82-6.69Q1.05-8.05 1.05-10.42L1.05-10.42Q1.05-11.60 1.74-12.50Q2.43-13.41 3.69-13.91Q4.95-14.41 6.52-14.41L6.52-14.41Q8.06-14.41 9.27-13.87Q10.49-13.32 11.16-12.31Q11.84-11.30 11.84-10L11.84-10L8.42-10Q8.42-10.87 7.89-11.35Q7.35-11.83 6.45-11.83L6.45-11.83Q5.53-11.83 5.00-11.42Q4.46-11.02 4.46-10.39L4.46-10.39Q4.46-9.84 5.05-9.40Q5.63-8.96 7.11-8.48Q8.58-8.01 9.53-7.46L9.53-7.46Q11.84-6.13 11.84-3.80L11.84-3.80Q11.84-1.93 10.43-0.87Q9.02 0.20 6.57 0.20L6.57 0.20Q4.84 0.20 3.44-0.42Q2.04-1.04 1.33-2.12Q0.63-3.20 0.63-4.61L0.63-4.61L4.06-4.61Q4.06-3.47 4.65-2.92Q5.24-2.38 6.57-2.38L6.57-2.38Q7.42-2.38 7.92-2.75Q8.41-3.12 8.41-3.78ZM13.59-14.22L18.10-14.22L21.27-4.33L24.43-14.22L28.95-14.22L28.95 0L25.51 0L25.51-3.32L25.84-10.12L22.40 0L20.14 0L16.69-10.13L17.02-3.32L17.02 0L13.59 0L13.59-14.22ZM38.46-3.78L38.46-3.78Q38.46-4.53 37.92-4.95Q37.39-5.37 36.05-5.82Q34.72-6.27 33.87-6.69L33.87-6.69Q31.10-8.05 31.10-10.42L31.10-10.42Q31.10-11.60 31.79-12.50Q32.48-13.41 33.74-13.91Q35-14.41 36.57-14.41L36.57-14.41Q38.11-14.41 39.32-13.87Q40.54-13.32 41.21-12.31Q41.88-11.30 41.88-10L41.88-10L38.47-10Q38.47-10.87 37.93-11.35Q37.40-11.83 36.49-11.83L36.49-11.83Q35.58-11.83 35.04-11.42Q34.51-11.02 34.51-10.39L34.51-10.39Q34.51-9.84 35.10-9.40Q35.68-8.96 37.16-8.48Q38.63-8.01 39.58-7.46L39.58-7.46Q41.88-6.13 41.88-3.80L41.88-3.80Q41.88-1.93 40.48-0.87Q39.07 0.20 36.62 0.20L36.62 0.20Q34.89 0.20 33.49-0.42Q32.09-1.04 31.38-2.12Q30.67-3.20 30.67-4.61L30.67-4.61L34.11-4.61Q34.11-3.47 34.70-2.92Q35.29-2.38 36.62-2.38L36.62-2.38Q37.47-2.38 37.96-2.75Q38.46-3.12 38.46-3.78Z"></path></g></g></svg>